<svg xmlns="http://www.w3.org/2000/svg" xmlns:xlink="http://www.w3.org/1999/xlink" width="96" height="96" preserveAspectRatio="xMidYMid meet" viewBox="0 0 24 24" style="-ms-transform: rotate(360deg); -webkit-transform: rotate(360deg); transform: rotate(360deg);"><path fill="#fe6150" d="M3 4a2 2 0 0 0-2 2v11h2a3 3 0 0 0 3 3a3 3 0 0 0 3-3h6a3 3 0 0 0 3 3a3 3 0 0 0 3-3h2v-5l-3-4h-3V4m-7 2l4 4l-4 4v-3H4V9h6m7 .5h2.5l1.97 2.5H17M6 15.5A1.5 1.5 0 0 1 7.5 17A1.5 1.5 0 0 1 6 18.5A1.5 1.5 0 0 1 4.5 17A1.5 1.5 0 0 1 6 15.5m12 0a1.5 1.5 0 0 1 1.5 1.5a1.5 1.5 0 0 1-1.5 1.5a1.5 1.5 0 0 1-1.5-1.5a1.5 1.5 0 0 1 1.5-1.5Z"/></svg>